<?xml version="1.0" encoding="utf-8"?>
<!DOCTYPE svg PUBLIC "-//W3C//DTD SVG 1.0//EN" "http://www.w3.org/TR/2001/REC-SVG-20010904/DTD/svg10.dtd">
<svg version="1.0" xmlns="http://www.w3.org/2000/svg" width="1024px" height="1024px" viewBox="0 0 1024 1024" preserveAspectRatio="xMidYMid meet">
   <defs>
      <linearGradient id="lg0" gradientUnits="userSpaceOnUse" x1="50.0%" y1="4.5898438%" x2="50.0%" y2="95.01953%">
         <stop offset="0%" style="stop-color:rgb(0,0,0);" />
         <stop offset="1%" style="stop-color:rgb(60,58,98);" />
         <stop offset="100%" style="stop-color:rgb(95,102,144);" />
      </linearGradient>
   </defs>
 <g fill="#43436b">
  <path fill="url(#lg0)" d="M 50 454.6 c 0 -1.3 1.1 -9.1 2.5 -17.3 8.6 -50.9 22.7 -93.6 45.3 -137.6 46 -89.6 117.3 -159.8 208.3 -205.2 57.4 -28.6 122.8 -45.2 186.6 -47.3 48.6 -1.7 87.9 2.3 132.8 13.5 33.8 8.4 62.3 18.9 92.4 33.8 40.3 20.2 72.4 41.9 106.2 72.2 63.4 56.7 111.6 133.9 135.4 216.9 2.8 9.7 9.5 37.3 9.5 39 0 0.2 -68.8 0.4 -152.8 0.4 l -152.8 0 -2.2 -4.5 c -2.7 -5.6 -5.3 -7.3 -13.3 -8.7 -10.4 -1.8 -13.8 -5.2 -15.8 -16.1 -2.9 -16.1 -16.8 -19.2 -23.2 -5.2 -1 2.2 -1.9 5.3 -1.9 6.8 0 7.5 -5.7 12.9 -15.4 14.6 -3.3 0.6 -7 1.8 -8.3 2.7 -3.4 2.2 -6.3 7.3 -6.3 11.2 0 3 -0.2 3.2 -3.5 3.2 -2.8 0 -3.5 -0.4 -3.5 -2 0 -1.9 -0.7 -2 -17.6 -2 l -17.7 0 0.5 -4.3 c 0.5 -4.1 2.5 -6.2 62.7 -66.5 40.8 -40.8 62.7 -63.4 63.7 -65.7 1.3 -3.2 1.3 -3.9 -0.2 -6.8 -2.3 -4.5 -49.5 -51.4 -53.4 -53.1 -1.7 -0.7 -4.4 -1.1 -5.8 -0.8 -2 0.3 -35 32.6 -118 115.6 l -115.2 115.1 -159.5 0.3 -159.5 0.2 0 -2.4 z  m 421 -145.8 c 4 -2.8 7 -8.1 7 -12.5 0 -8.8 8.2 -16.3 17.9 -16.3 5.4 0 12.1 -6.7 12.1 -12 0 -5.3 -6.9 -12 -12.3 -12 -10.1 0 -16.7 -6.5 -18 -17.7 -0.6 -5.3 -4 -10.1 -8.3 -11.9 -2.9 -1.2 -3.9 -1.2 -6.8 0 -4.7 2 -8.5 7.3 -9.2 13.2 -1.3 9.4 -6.1 14.8 -14.2 15.9 -10.1 1.4 -15.7 5.8 -15.7 12.6 0 3.4 0.6 4.6 3.7 7.5 2 1.8 5 3.6 6.5 3.9 15 2.9 18.2 5.8 19.8 17.7 0.7 5.2 3.3 9.1 7.9 11.9 4 2.4 5.6 2.4 9.6 -0.3 z "/>
  <path fill="url(#lg0)" d="M 442 419.2 c 0 -3.6 1.9 -5.6 56.3 -60 53.1 -53.1 56.4 -56.2 59.7 -56.2 3.2 0 4.8 1.2 15.3 11.7 10.4 10.4 11.7 12.2 11.7 15.2 0 3.2 -3.2 6.6 -44.9 48.3 l -44.8 44.8 -26.7 0 -26.6 0 0 -3.8 z "/>
  <path fill="url(#lg0)" d="M 589.2 298.7 c -10.5 -10.6 -11.2 -11.5 -11.2 -15.2 0 -3.8 0.7 -4.7 11.3 -15.3 10.5 -10.4 11.5 -11.2 15.1 -11.2 3.7 0 4.7 0.8 15.3 11.3 10.6 10.5 11.3 11.5 11.3 15.1 0 3.7 -0.7 4.7 -11.4 15.3 -10.6 10.5 -11.6 11.3 -15.2 11.3 -3.7 0 -4.7 -0.8 -15.2 -11.3 z "/>
 </g>
 <g fill="#50537c">
  <path fill="url(#lg0)" d="M 621.1 663 c -2.4 -8.8 -5.2 -17.3 -6.2 -19 -1 -1.6 -3.8 -3.9 -6.1 -5.2 -6.2 -3.3 -19.9 -3.3 -27.9 0 l -5.6 2.3 -4.8 18 -4.8 17.9 -16.1 -0.2 -16.1 -0.3 -2.6 -17.6 c -3.5 -23.4 -3.6 -23.5 -7.6 -28 -4.7 -5.2 -11.7 -7.5 -18 -6 -5.9 1.5 -14.2 5.8 -14.9 7.6 -0.4 0.8 1 9.5 3 19.4 2 9.9 3.6 19.6 3.6 21.5 l 0 3.6 -14.2 0 c -7.9 0 -16.7 0.3 -19.5 0.6 l -5.3 0.7 0 -5.6 c 0 -13 -5 -25.6 -13.3 -33.8 -10.3 -10.1 -22.4 -15 -39.2 -15.6 -14.8 -0.6 -22.9 1.2 -37.1 8.2 -6.1 3 -12 5.5 -13.2 5.5 -1.2 0 -4.9 -1.8 -8.3 -4 -3.5 -2.2 -9.9 -5.2 -14.3 -6.7 -7.4 -2.5 -9.5 -2.7 -23.1 -2.7 -13.4 0 -16 0.3 -24 2.7 -18 5.5 -32.1 14.2 -36 22.4 -1.3 2.8 -2 7.1 -2.3 16 l -0.5 12.3 -85.2 0 -85.3 0 -5 -15.2 c -13.1 -39.7 -19.8 -71.9 -23.2 -113.3 -2 -23.7 -1.2 -67.9 1.6 -89.8 l 0.6 -4.7 156.6 0 c 134.2 0 157.1 -0.2 159.5 -1.4 2.6 -1.4 2.7 -1.4 2.7 1.3 0 1.8 -1.2 4.1 -3.4 6.4 -3.9 4.2 -4.8 7.4 -3 11.5 1.7 4.1 50.1 52.5 54 54.1 2.7 1.1 3.7 1 6.4 -0.4 1.8 -0.9 27.6 -26.2 57.4 -56.1 50.7 -50.8 54.5 -54.4 57.7 -54.4 1.9 0 2.9 0.4 2.3 0.8 -0.6 0.4 -1.3 1.5 -1.7 2.4 -0.6 1.7 0.6 1.8 16.8 1.8 17.2 0 17.4 0 17.8 2.3 0.3 1.3 0.5 0.8 0.6 -1.5 0.1 -3.7 2.1 -5.5 2.1 -2 0.1 2.9 3.9 10.5 6.2 12.1 3.2 2.3 7.8 3.9 11.3 4 3.7 0.1 8.8 3.2 11.1 6.6 1 1.5 2.1 5.2 2.6 8.3 1.1 7 4.1 11.6 9.1 13.9 3.8 1.6 4 1.6 7.5 -0.2 4.9 -2.8 7 -6 8.3 -13 2 -10.8 4.9 -13.9 14.8 -15.6 3.2 -0.6 7.2 -1.9 8.9 -2.9 3.5 -2.1 7.2 -8.6 7.2 -12.5 0 -2.7 1.7 -3.4 2.6 -1 0.5 1.3 18.3 1.5 151.8 1.5 l 151.2 0 2.2 13.3 c 5.3 31.3 7.3 63.7 6.1 97.4 -1.7 45.7 -9.2 86.5 -24.1 131 l -5.1 15.2 -88.6 0.3 c -48.7 0.2 -88.7 0.2 -88.9 0.1 -0.2 -0.1 0.3 -12.4 1.2 -27.5 2 -34.2 2.1 -52.7 0.2 -57.1 -2.1 -5.1 -7.2 -9.4 -12.8 -10.7 -5.8 -1.4 -14.1 -0.2 -22.2 3.3 l -4.9 2.1 0.7 27 c 0.3 14.9 1.1 34.4 1.7 43.4 0.6 9 0.8 17 0.5 17.8 -0.4 1.1 -4.3 1.4 -21.1 1.4 l -20.5 0 0 -2.2 c 0 -1.3 1.2 -8.1 2.6 -15.3 3.3 -17 3.5 -23.5 0.8 -27.2 -5.6 -7.6 -13.6 -9.7 -24.2 -6.4 -3.8 1.1 -7.4 2.6 -7.9 3.3 -0.6 0.7 -1.8 7.2 -2.7 14.3 -0.9 7.2 -2.4 17.6 -3.3 23.3 l -1.6 10.2 -12.3 0 c -7.6 0 -12.4 0.4 -12.4 1 0 0.6 -1.5 1 -3.2 1 l -3.3 0 -4.4 -16 z "/>
  <path fill="url(#lg0)" d="M 404.2 483.7 c -16.3 -16.4 -17.3 -13.1 13.1 -43.5 20.6 -20.6 24.6 -24.2 27.2 -24.2 2.2 0 2.6 0.3 1.7 1.2 -0.7 0.7 -1.2 1.6 -1.2 2 0 1.4 47.4 1 48.8 -0.4 0.9 -0.9 1.2 -0.5 1.2 1.8 0 2.5 -4.9 7.8 -35.8 38.7 -43.6 43.6 -38.3 41.2 -55 24.4 z "/>
 </g>
 <g fill="#5b618a">
  <path fill="url(#lg0)" d="M 492 976.9 c -65.2 -2.4 -130.4 -19.3 -189.1 -49 -89.2 -45 -159.7 -115.2 -205.5 -204.4 -8.5 -16.5 -21.4 -45.7 -21.4 -48.4 0 -0.8 22.5 -1.1 84 -1.1 74 0 84 -0.2 84 -1.5 0 -0.8 0.6 -1.5 1.4 -1.5 1.2 0 1.5 6.3 1.8 41.3 0.3 38.8 0.4 41.4 2.3 45.2 3.2 6.4 8.9 9 20 9 5 0 10.7 -0.4 12.8 -0.8 l 3.7 -0.8 0 -53.8 0 -53.9 6.8 -2.7 c 5.6 -2.3 8.2 -2.8 16.2 -2.8 10.4 0 14 1 18.3 5.1 6.3 6 6.2 4.5 6.7 53.7 0.6 50.4 0.4 49.2 7.8 53.3 5.3 2.9 16.3 3.9 24.5 2.3 l 5.7 -1.2 0 -52.9 0 -52.9 4.3 -2.4 c 6.7 -3.9 11.6 -5.1 20.7 -5 12.8 0.1 19.4 4 22 13.1 0.6 2.3 1 19.8 1 45.2 0 25.1 0.4 43 1 45.2 1.5 5.3 6.7 9.4 13.7 10.8 5.5 1.2 18 0.8 21.6 -0.6 1.5 -0.5 1.7 -5.1 1.9 -47.2 0.2 -36.1 0.6 -46.6 1.6 -47 0.6 -0.2 1.2 0.4 1.2 1.5 0 1.7 1.1 1.8 16.5 1.5 14 -0.2 16.5 -0.5 16.5 -1.8 0 -0.9 0.7 -1.4 1.6 -1.2 1.3 0.2 2.8 5.2 6.4 20.9 5.9 25.3 12 47.4 16.1 57.9 3.6 9.4 7.5 13.2 15.9 15.7 10.1 2.9 25.7 1.2 31.8 -3.5 1.8 -1.4 4.2 -7.7 10.2 -26.7 4.4 -13.7 9.8 -32 12.1 -40.7 l 4.3 -15.8 3.1 0 c 3.1 0 3.2 0.1 4.9 7.8 4.2 17.8 17.1 60.2 22.1 72.5 1.1 2.6 8.2 6.4 14.5 7.6 7.2 1.5 19.5 -0.1 26.6 -3.3 l 5.3 -2.4 4 -12.9 c 4.6 -14.8 12.4 -43.7 17.1 -63.5 2.8 -12 3.5 -13.8 5.2 -13.8 1.4 0 1.8 0.5 1.4 1.5 -0.5 1.3 1.8 1.5 17 1.5 16.7 0 17.6 -0.1 18.1 -2 0.3 -1.1 1.1 -2 1.8 -2 0.8 0 1.6 3.5 2.5 10.8 1.9 16.3 3.5 19 13.2 21.1 5.1 1.2 13.1 0 16.2 -2.2 1.1 -0.8 2 -4 2.7 -9.7 2.1 -16.7 2.4 -18.3 3.7 -18.8 0.6 -0.2 1.2 0.4 1.2 1.5 0 1.7 3.2 1.8 87.5 1.5 48.1 -0.1 87.5 0.1 87.5 0.5 0.1 2.7 -11 28 -20 45.8 -35.3 70 -83 125.6 -146.8 171.2 -24.7 17.7 -58.7 36.9 -86.4 48.6 -48.7 20.8 -108.3 34.5 -157.3 36.3 -7.7 0.2 -16.9 0.6 -20.5 0.7 -3.6 0.2 -14.8 0 -25 -0.4 z  M775.2 747.4 C 775.2 735.3 765.4 725.5 753.3 725.5 741.3 725.5 731.5 735.3 731.5 747.4 731.5 759.4 741.3 769.2 753.3 769.2 765.4 769.2 775.2 759.4 775.2 747.4 Z M761.3 767.7 "/>
  <path fill="url(#lg0)" d="M 543.1 729.3 c -2.9 -10.6 -9.1 -47.8 -9.1 -54 0 -4.3 1.2 -5.7 2.4 -2.8 0.8 2.2 26.6 2.2 26.6 0 0 -0.8 0.7 -1.5 1.6 -1.5 2.4 0 1.7 3.9 -5.5 31 -3.4 12.9 -6.7 25.2 -7.2 27.3 -0.9 3.4 -1.3 3.7 -4.4 3.7 -3.1 0 -3.5 -0.3 -4.4 -3.7 z "/>
  <path fill="url(#lg0)" d="M 633.2 706.7 c -6.7 -24.5 -8.9 -36.8 -6.2 -35.2 0.6 0.3 1 1.6 1.1 2.8 0 1.2 0.3 1.6 0.6 1 0.3 -1 3.9 -1.3 12.9 -1.3 10.4 0 12.4 -0.2 12.4 -1.5 0 -0.8 0.7 -1.5 1.5 -1.5 1 0 1.5 1 1.5 2.8 0 3 -8.6 55.7 -9.5 58 -0.2 0.6 -1.9 1.2 -3.8 1.2 l -3.3 0 -7.2 -26.3 z "/>
 </g>
 <g fill="#ffffff">
  <path d="M778.9 747.3 C 778.9 761.5 767.4 773 753.3 773 739.1 773 727.6 761.5 727.6 747.3 727.6 733.2 739.1 721.7 753.3 721.7 767.4 721.7 778.9 733.2 778.9 747.3 Z M750.5 772.5 "/>
  <path d="M 539.5 770.4 c -1.1 -0.2 -4.3 -0.9 -7.2 -1.5 -7.3 -1.4 -12.9 -5.9 -15.8 -12.2 -6.8 -15.4 -20.8 -71.3 -28.5 -114.1 -2.5 -13.9 -2.6 -13.7 7.2 -18.1 14.8 -6.7 30.9 -2.5 34.7 9 0.6 1.7 3.1 16.5 5.7 33 6.3 41.2 10.7 64.5 12 63.2 0.3 -0.2 3.1 -10.5 6.3 -22.8 3.2 -12.3 8.7 -32.8 12.1 -45.6 l 6.3 -23.2 5.6 -2.3 c 4.8 -2 7.4 -2.3 17.6 -2.3 10.6 0 12.5 0.3 16.2 2.3 2.4 1.2 5 3.4 5.9 4.7 1.8 2.8 5.7 16 17.9 60.7 4.4 15.9 8.2 28.5 8.6 28 1 -1 9 -49.1 13 -78.2 1.8 -12.9 3.7 -24.1 4.2 -24.7 0.5 -0.7 3.9 -2.2 7.4 -3.3 16.8 -5.2 31 0.2 32.9 12.5 1.6 11 -11.7 71.2 -25.7 115.8 l -4 12.9 -5.4 2.4 c -7.6 3.5 -22.4 5.1 -31.4 3.5 -7.1 -1.3 -14.4 -5 -15.6 -7.8 -4.8 -11.8 -17 -51.9 -22.3 -73.2 l -1.8 -7.4 -4.2 16 c -2.4 8.7 -7.8 27.1 -12.2 40.8 -8.6 27.2 -8.7 27.3 -17.2 29.9 -4.9 1.5 -18.9 2.8 -22.3 2 z "/>
  <path d="M 258.3 769.1 c -5.5 -1.4 -9.7 -4.5 -11.8 -8.6 -1.9 -3.9 -2 -6 -2 -57.5 0 -50.3 0.1 -53.7 1.9 -57.3 4.1 -8.3 18.1 -16.9 36.1 -22.4 8.3 -2.5 10.3 -2.7 27 -2.7 16.9 0 18.5 0.1 26.1 2.7 4.4 1.5 10.7 4.4 13.9 6.4 l 5.8 3.8 10.6 -5.3 c 12.8 -6.3 21.4 -8.3 36.6 -8.3 12.4 0 17.7 0.9 27.7 4.7 15.6 5.9 26.4 18.3 29.7 34.2 0.7 3.5 1.1 23.2 1.1 57.1 0 48.5 -0.1 51.9 -1.7 52.6 -3.6 1.4 -21.8 1.8 -27.6 0.5 -7 -1.4 -12.2 -5.5 -13.7 -10.8 -0.6 -2.2 -1 -20.1 -1 -45.2 0 -25.4 -0.4 -42.9 -1 -45.2 -1.4 -4.9 -5.4 -9.5 -9.9 -11.4 -7.3 -3.1 -19.4 -1.5 -27.7 3.7 l -3.4 2.1 0 52.8 0 52.9 -5.7 1.1 c -3.3 0.7 -10.1 1.1 -15.9 0.8 -8.2 -0.4 -10.8 -0.9 -14.5 -2.9 -7.5 -4.2 -7.3 -2.8 -7.9 -53.4 -0.5 -49.2 -0.4 -47.7 -6.7 -53.7 -3.9 -3.7 -7.7 -4.9 -15.4 -4.9 -4.8 0 -8.5 0.7 -13.3 2.7 l -6.6 2.6 0 53.8 0 53.8 -2.2 0.6 c -3.6 1.1 -25 1.6 -28.5 0.7 z "/>
  <path d="M 744.7 704.7 c -5.6 -1.7 -8.3 -3.9 -9.6 -8.1 -2.6 -8.5 -4.9 -40 -5.8 -82.2 l -0.6 -30 4.9 -2.1 c 18.5 -7.9 36 -4.7 41 7.4 3 7.1 -0.1 86.3 -4.3 109.2 -0.4 2.6 -1.3 3.6 -4.1 4.8 -4.9 2.1 -15.8 2.5 -21.5 1 z "/>
  <path d="M 412.5 528.3 c -1.6 -0.8 -14.1 -12.7 -27.7 -26.4 -26.6 -26.8 -27.6 -28.2 -26.3 -36.7 0.6 -4.7 1.5 -5.6 119.3 -123.4 117.9 -117.8 118.7 -118.7 123.4 -119.3 8.8 -1.3 10.2 -0.3 36.9 26.4 13.6 13.5 25.4 26 26.3 27.8 2 4 2 8.3 0.1 12.9 -1.6 3.8 -232.4 235.1 -238 238.5 -3.7 2.3 -9.9 2.4 -14 0.2 z  m 88.9 -117.3 l 80.9 -81.1 -6.9 -7.2 c -3.8 -4 -9.3 -9.4 -12.2 -12.1 l -5.3 -5 -80.9 80.9 c -44.6 44.6 -81 81.4 -81 82 0 1.3 22.2 23.5 23.5 23.5 0.6 0 37.4 -36.5 81.9 -81 z  m 115.2 -115.3 c 6.3 -6.3 11.4 -11.8 11.4 -12.3 0 -1.2 -22.4 -23.4 -23.6 -23.4 -1.2 0 -23.4 22.2 -23.4 23.5 0 1.2 22.1 23.5 23.4 23.5 0.4 0 6 -5.1 12.2 -11.3 z "/>
  <path d="M 612.5 466.4 c -4.3 -2.2 -7.3 -7 -8.3 -13.6 -0.5 -3.1 -1.6 -6.8 -2.6 -8.3 -2.3 -3.4 -7.4 -6.5 -11.1 -6.6 -3.4 -0.1 -8.1 -1.7 -11.1 -3.9 -5.3 -3.8 -7 -13.8 -3.4 -19.7 2.6 -4.4 5.6 -6.1 12.6 -7.4 9.7 -1.7 15.4 -7.1 15.4 -14.6 0.1 -4 3.3 -10.6 6.5 -13.1 8.4 -6.6 22.3 -1.7 24 8.5 2.3 13.5 5.6 17.4 16 19.1 8.1 1.3 10.8 3 13.5 8.2 2.5 5 2.5 9 0 14.1 -2.6 4.9 -6.5 7.4 -14.1 8.8 -9.9 1.7 -12.8 4.8 -14.8 15.5 -1.3 7 -3 10 -7.4 12.6 -3.8 2.4 -10.9 2.5 -15.2 0.4 z "/>
  <path d="M 458.4 312.1 c -4.6 -2.8 -7.2 -6.7 -7.9 -11.9 -1.6 -11.9 -4.9 -14.8 -19.7 -17.7 -7.4 -1.4 -13 -11.1 -10.7 -18.3 2.2 -7.1 6.9 -10.5 16.1 -11.7 8.1 -1.1 12.9 -6.5 14.2 -15.9 2.4 -18.5 28.2 -19.6 30.3 -1.3 1.3 11.2 7.9 17.7 18.1 17.7 4 0 9.8 4.5 11.6 8.9 2 5.3 2 7.6 -0.3 12.7 -2 4.4 -7.3 8.4 -11.2 8.4 -9.7 0 -17.9 7.5 -17.9 16.3 0 4.4 -3 9.7 -7 12.5 -4.2 2.8 -11.2 3 -15.6 0.3 z "/>
 </g>
</svg>